<?xml version="1.0" encoding="UTF-8"?>
<svg width="26px" height="26px" viewBox="0 0 26 26" version="1.1" xmlns="http://www.w3.org/2000/svg" xmlns:xlink="http://www.w3.org/1999/xlink">
    <!-- Generator: Sketch 41 (35326) - http://www.bohemiancoding.com/sketch -->
    <title>Suitcase</title>
    <desc>Created with Sketch.</desc>
    <defs></defs>
    <g id="Page-1-(DE)" stroke="none" stroke-width="1" fill="none" fill-rule="evenodd">
        <g id="Suitcase" transform="translate(-175.000000, -619.000000)" stroke-width="0.5" stroke="#666666" fill="#666666">
            <path d="M194.509338,625 L193,625 L193,624.999756 C193,622.233887 190.763672,620 188,620 C185.242004,620 183,622.240112 183,624.999756 L183,625 L181.490662,625 C178.466858,625 176,627.462219 176,630.490112 L176,638.509888 C176,641.535828 178.461304,644 181.490662,644 L194.509338,644 C197.533142,644 200,641.537781 200,638.509888 L200,630.490112 C200,627.464111 197.538696,625 194.509338,625 L194.509338,625 Z M184,624.999756 C184,622.792541 185.794067,621 188,621 C190.211609,621 192,622.786438 192,624.999756 L192,625 L184,625 L184,624.999756 L184,624.999756 Z M183.5,629.906372 L185,632.174255 L185,636.893005 C185,636.959228 184.960022,637 184.90979,637 L182.09021,637 C182.042664,637 182,636.956055 182,636.893005 L182,632.174255 L183.5,629.906372 L183.5,629.906372 Z M199,638.509888 C199,640.985046 196.981262,643 194.509338,643 L191,643 L181.490662,643 C179.013855,643 177,640.983826 177,638.509888 L177,630.490112 C177,628.014893 179.018738,626 181.490662,626 L183,626 L183,628.849609 L181.082947,631.747986 L181,631.873474 L181,632.023865 L181,636.893005 C181,637.501709 181.48352,638 182.09021,638 L184.90979,638 C185.516663,638 186,637.507263 186,636.893005 L186,632.023865 L186,631.873474 L185.917053,631.747986 L184,628.849609 L184,626 L194.509338,626 C196.986145,626 199,628.016174 199,630.490112 L199,638.509888 L199,638.509888 Z"></path>
        </g>
    </g>
</svg>